<svg width="66" height="59" viewBox="0 0 66 59" fill="none" xmlns="http://www.w3.org/2000/svg">
<g clip-path="url(#clip0_111_1347)">
<path d="M21.0938 45.0863L25.6047 43.6486C25.6047 43.6486 22.3285 41.1968 21.0938 45.0863Z" fill="#303030"/>
<path d="M3.60598 31.133L8.11694 29.6953C8.11694 29.6953 5.33004 26.04 3.60598 31.133Z" fill="#303030"/>
<path d="M21.3902 49.1015L23.6282 47.0904L22.2356 42.8859L20.3134 43.2233L21.3902 49.1015Z" fill="#303030"/>
<path d="M4.93188 30.2084L4.7565 34.8675L-5.05997e-06 31.133C-5.05997e-06 31.133 0.047351 28.5951 0.0947056 28.4247C0.14206 28.2542 0.571759 28.3265 0.571759 28.3265L4.93188 30.2084Z" fill="#303030"/>
<path d="M25.7696 48.182C26.3799 51.6996 28.5074 54.2771 30.5208 53.9396C32.3799 53.6297 33.4919 50.9403 33.1691 47.7602C33.1428 47.4967 33.106 47.2299 33.0604 46.9613C32.4483 43.4437 30.3209 40.8662 28.3092 41.2036C27.3428 41.3655 26.5798 42.1678 26.1133 43.3455C25.6064 44.6248 25.4503 46.35 25.7696 48.182Z" fill="#545454"/>
<path d="M26.7536 54.9762L30.998 53.8019L31.0945 52.4848L27.1623 52.3677L26.7536 54.9762Z" fill="#545454"/>
<path d="M21.9321 49.2151C22.5442 52.7309 24.6717 55.3102 26.6834 54.9727C28.5442 54.661 29.6562 51.9716 29.3335 48.7932C29.3071 48.5298 29.2703 48.2629 29.223 47.9943C28.6126 44.4768 26.4852 41.8993 24.4735 42.2367C23.5071 42.3986 22.7442 43.1992 22.2776 44.3786C21.7708 45.6579 21.6147 47.3831 21.9321 49.2151Z" fill="#828282"/>
<path d="M22.867 49.1428C23.2441 51.3123 24.556 52.9032 25.7977 52.6949C26.9448 52.502 27.6305 50.8439 27.4306 48.8828C27.4148 48.721 27.392 48.5557 27.364 48.3904C26.9869 46.221 25.675 44.6301 24.4332 44.8384C23.8387 44.9383 23.3669 45.4324 23.0792 46.159C22.7635 46.9493 22.6671 48.0134 22.867 49.1428Z" fill="#545454"/>
<path d="M23.9823 49.1479C24.27 50.7922 25.2592 51.9974 26.1992 51.8339C27.0674 51.6892 27.5866 50.4341 27.4357 48.9516C27.4234 48.8294 27.4059 48.7054 27.3849 48.5797C27.099 46.9389 26.108 45.7371 25.168 45.8937C24.719 45.9695 24.3629 46.3431 24.1455 46.8924C23.8906 47.6172 23.8344 48.395 23.9823 49.1479Z" fill="#CACACA"/>
<path d="M8.52202 33.5917C9.10256 37.1144 11.2072 39.7109 13.2224 39.3906C15.085 39.0945 16.2215 36.4137 15.9251 33.2319C15.9006 32.9684 15.8672 32.7015 15.8234 32.4329C15.2411 28.9102 13.1365 26.3155 11.1213 26.6357C10.1549 26.789 9.38318 27.5844 8.90788 28.7587C8.39049 30.0345 8.22036 31.758 8.52202 33.5917Z" fill="#545454"/>
<path d="M9.44818 40.3945L13.7013 39.2564L13.8101 37.9392L9.87963 37.7894L9.44818 40.3945Z" fill="#545454"/>
<path d="M4.70728 34.5938C5.28606 38.1148 7.39246 40.7112 9.40766 40.391C11.03 40.131 12.0999 38.0649 12.1542 35.4306C12.1663 34.7618 12.117 34.0934 12.0069 33.4333C11.4264 29.9123 9.32172 27.3158 7.30477 27.6361C6.17176 27.8169 5.30886 28.8792 4.8739 30.3995C4.51401 31.7699 4.45719 33.2 4.70728 34.5938Z" fill="#828282"/>
<path d="M5.68958 34.8624C6.04035 37.0353 7.34523 38.6365 8.58873 38.4385C9.73752 38.256 10.4373 36.6031 10.2549 34.6403C10.2409 34.4784 10.2198 34.3131 10.1918 34.1478C9.841 31.975 8.53612 30.3737 7.29262 30.5717C6.6963 30.6664 6.221 31.1571 5.92635 31.882C5.60715 32.6689 5.50367 33.7312 5.68958 34.8624Z" fill="#545454"/>
<path d="M6.80854 34.8779C7.07864 36.5205 8.06081 37.7309 9.00088 37.5811C9.86905 37.4434 10.404 36.1934 10.2602 34.7092C10.2496 34.587 10.2339 34.4613 10.2128 34.3373C9.94271 32.693 8.96055 31.4826 8.02047 31.6324C7.56972 31.7047 7.21018 32.0749 6.98919 32.6224C6.72848 33.3457 6.66618 34.1236 6.80854 34.8779Z" fill="#CACACA"/>
<path d="M27.727 50.0932C27.727 50.0932 27.5007 50.0123 27.406 50.4221C27.3113 50.8319 26.8921 53.4025 27.1166 53.6711C27.3411 53.9397 31.8293 58.5626 34.9161 58.9707C37.8766 59.3615 52.0146 55.9748 64.1812 49.618C64.6972 49.3495 65.1338 48.9549 65.449 48.4723C65.7643 47.9897 65.9474 47.4355 65.9807 46.8632C66.0351 45.9317 65.9807 45.4703 65.6966 44.222C65.0564 41.4258 63.2412 42.4313 63.2412 42.4313L27.727 50.0932Z" fill="#303030"/>
<path d="M21.7673 44.8212C21.7673 44.8212 21.6796 48.9121 21.3885 49.1015C21.0974 49.2909 10.2847 39.6972 10.2847 39.6972C10.2847 39.6972 9.38674 37.3745 10.4601 36.7168L21.0974 45.0863L21.7673 44.8212Z" fill="#303030"/>
<mask id="mask0_111_1347" style="mask-type:luminance" maskUnits="userSpaceOnUse" x="0" y="-1" width="65" height="56">
<path d="M0.592868 28.4781C0.647238 28.6192 1.77849 29.611 3.60427 31.133C4.162 29.6506 5.10734 28.6606 6.25262 28.5693C8.28711 28.3971 10.176 31.152 10.4619 34.7143C10.5189 35.3808 10.5142 36.0511 10.4479 36.7167C13.7557 39.3717 17.5142 42.3366 21.0851 45.0863C21.6534 43.9534 22.4882 43.2199 23.4634 43.1424C25.4979 42.9806 27.3868 45.7251 27.6727 49.2874C27.6955 49.5595 27.7077 49.8281 27.7113 50.0932C31.2348 52.6759 33.9498 54.5164 34.8688 54.785C38.4379 55.8215 60.9121 48.5539 64.0831 45.3549C66.9191 42.4864 59.4476 21.7184 57.8463 17.3898C57.6578 16.8819 57.2884 16.458 56.8063 16.1967C52.1217 13.6622 26.8712 0.0877503 23.9194 -6.01178e-05C20.6677 -0.0947576 3.28155 4.24239 3.09038 5.56299C2.89921 6.88359 0.306987 27.7205 0.592868 28.4781Z" fill="white"/>
</mask>
<g mask="url(#mask0_111_1347)">
<path d="M0.592868 28.4781C0.647238 28.6192 1.77849 29.611 3.60427 31.133C4.162 29.6506 5.10734 28.6606 6.25262 28.5693C8.28711 28.3971 10.176 31.152 10.4619 34.7143C10.5189 35.3808 10.5142 36.0511 10.4479 36.7167C13.7557 39.3717 17.5142 42.3366 21.0851 45.0863C21.6534 43.9534 22.4882 43.2199 23.4634 43.1424C25.4979 42.9806 27.3868 45.7251 27.6727 49.2874C27.6955 49.5595 27.7077 49.8281 27.7113 50.0932C31.2348 52.6759 33.9498 54.5164 34.8688 54.785C38.4379 55.8215 60.9121 48.5539 64.0831 45.3549C66.9191 42.4864 59.4476 21.7184 57.8463 17.3898C57.6578 16.8819 57.2884 16.458 56.8063 16.1967C52.1217 13.6622 26.8712 0.0877503 23.9194 -6.01178e-05C20.6677 -0.0947576 3.28155 4.24239 3.09038 5.56299C2.89921 6.88359 0.306987 27.7205 0.592868 28.4781Z" fill="white"/>
<path d="M34.9163 56.2365C35.5529 56.4276 33.7149 46.6841 33.7149 46.6841C31.9329 44.7058 2.46609 22.9874 0.56665 22.0094C-0.164715 21.6323 0.0895966 28.4247 0.0895966 28.4247C0.0895966 28.4247 29.588 54.6336 34.9163 56.2365Z" fill="#CC3838"/>
</g>
<path d="M56.3468 16.3568C56.4471 16.4235 56.5268 16.5161 56.5772 16.6244C56.6276 16.7327 56.6466 16.8524 56.6323 16.9706C56.618 17.0888 56.5709 17.2009 56.4961 17.2946C56.4213 17.3882 56.3217 17.4599 56.2082 17.5017C51.7463 19.1357 35.7265 24.9054 33.2517 24.3372C30.3701 23.6777 3.76388 5.95037 3.76388 5.95037L3.2728 5.59741C3.2728 5.59741 3.14652 5.42523 3.39732 5.29609C3.61305 5.17729 14.0205 1.72169 21.5973 0.344276C23.837 -0.0620629 24.7876 0.172098 26.8326 1.1604C33.6113 4.43004 50.6835 12.6085 56.3468 16.3568Z" fill="url(#paint0_linear_111_1347)"/>
<path d="M59.0722 20.8627C59.0722 20.8627 48.3139 25.7043 36.2122 28.3438C36.2122 28.3438 35.3756 28.5711 35.7 31.8011C36.0333 35.1172 36.3402 45.379 38.3308 46.3845C40.3215 47.39 63.2972 39.4079 63.5568 35.8249C63.8164 32.2419 61.6977 21.4911 59.0722 20.8627Z" fill="url(#paint1_linear_111_1347)"/>
<path style="mix-blend-mode:overlay" d="M59.1161 21.2621C59.1161 21.2621 49.2698 25.6939 38.1906 28.1096C38.1906 28.1096 37.4242 28.3196 37.7223 31.2759C38.0275 34.3097 38.3081 43.7054 40.1251 44.6248C41.9421 45.5442 62.9851 38.2388 63.2201 34.9519C63.4551 31.665 61.5206 21.8389 59.1161 21.2621Z" fill="url(#paint2_linear_111_1347)"/>
<path d="M59.6895 22.8237C60.6173 24.5902 62.408 28.6657 62.3396 33.6795C62.3363 33.8749 62.2811 34.0661 62.1796 34.2342C62.0781 34.4024 61.9338 34.5417 61.7609 34.6385C61.5903 34.7338 61.3977 34.7848 61.2013 34.7865C61.005 34.7883 60.8115 34.7408 60.6392 34.6485C60.4668 34.5562 60.3213 34.4223 60.2165 34.2593C60.1117 34.0963 60.0511 33.9098 60.0403 33.7174C59.907 31.3585 59.4019 27.2125 57.5393 23.9497C57.4623 23.8138 57.4148 23.6637 57.3997 23.5088C57.3846 23.354 57.4024 23.1977 57.4518 23.0499C57.5012 22.9021 57.5812 22.766 57.6868 22.65C57.7924 22.534 57.9214 22.4407 58.0655 22.376L58.1882 22.3192C58.4565 22.1976 58.7623 22.1822 59.0419 22.2761C59.3215 22.3701 59.5534 22.5662 59.6895 22.8237Z" fill="white"/>
<path d="M54.069 25.4607C53.8808 24.6748 54.3772 23.8879 55.1778 23.7032C55.9783 23.5184 56.7798 24.0057 56.9681 24.7916C57.1563 25.5775 56.6599 26.3644 55.8593 26.5491C55.0588 26.7339 54.2572 26.2466 54.069 25.4607Z" fill="white"/>
<g style="mix-blend-mode:overlay">
<path d="M45.4324 44.0946C45.4324 44.0946 40.0778 46.4586 38.6554 46.0626C37.233 45.6666 37.4663 39.1324 37.4663 39.1324C37.4663 39.1324 36.6788 48.4645 45.4324 44.0946Z" fill="white"/>
</g>
<path d="M64.1427 38.0959C64.1427 38.0959 64.8442 41.3346 64.7179 42.8102C64.7179 42.8102 61.1611 45.503 59.9825 45.3463C59.2073 45.243 58.9758 43.4972 58.7706 42.304C58.7167 41.9931 58.7694 41.6735 58.9205 41.3952C59.0716 41.1169 59.3125 40.8958 59.6054 40.7664C61.3067 40.0123 63.1745 39.1876 64.1427 38.0959Z" fill="#CCCCCC"/>
<path d="M63.9304 38.8104C63.9304 38.8104 64.5303 41.5515 64.4163 42.7998C64.4163 42.7998 61.4049 45.0811 60.4034 44.9468C59.7474 44.8607 59.5528 43.3817 59.3774 42.3642C59.3317 42.1018 59.3758 41.8321 59.5027 41.5969C59.6296 41.3618 59.8322 41.1745 60.0789 41.0642C61.5294 40.4323 63.1096 39.735 63.9304 38.8104Z" fill="#47C2C2"/>
<path style="mix-blend-mode:overlay" d="M63.7427 39.3666C63.7427 39.3666 64.2688 41.7478 64.1671 42.8342C64.1671 42.8342 61.5503 44.816 60.6787 44.7006C60.1087 44.6249 59.9385 43.3387 59.7877 42.4623C59.7479 42.2336 59.7866 41.9985 59.8977 41.7937C60.0088 41.589 60.186 41.4262 60.4016 41.3311C61.6573 40.7767 63.0306 40.1706 63.7427 39.3666Z" fill="url(#paint3_linear_111_1347)"/>
<path d="M63.7761 41.1021C63.8339 41.437 63.8708 41.7751 63.8866 42.1145C63.8896 42.1944 63.8726 42.2739 63.8372 42.3459C63.8017 42.4179 63.7488 42.4803 63.6832 42.5277C63.157 42.8962 61.7715 43.8517 61.3453 43.7949C60.9945 43.7502 60.8998 42.9754 60.8068 42.4433C60.7818 42.3043 60.8047 42.161 60.8721 42.0362C60.9395 41.9114 61.0474 41.8123 61.1787 41.7546C61.8137 41.4749 62.4264 41.1486 63.0114 40.7784C63.0801 40.7324 63.1594 40.7041 63.2421 40.6963C63.3248 40.6885 63.4082 40.7013 63.4845 40.7336C63.5608 40.7659 63.6276 40.8166 63.6786 40.8811C63.7295 40.9455 63.7631 41.0215 63.7761 41.1021Z" fill="#29A19E"/>
<path style="mix-blend-mode:overlay" d="M63.4411 41.4395C63.4813 41.6754 63.507 41.9134 63.5182 42.1523C63.5195 42.2078 63.5071 42.2628 63.482 42.3126C63.457 42.3623 63.4201 42.4054 63.3744 42.4382C63.0096 42.6964 62.0309 43.3696 61.731 43.33C61.489 43.2973 61.4153 42.7515 61.3522 42.3779C61.335 42.2807 61.3512 42.1806 61.3982 42.0934C61.4451 42.0061 61.5203 41.9366 61.6118 41.8958C62.0593 41.6988 62.4908 41.4685 62.9026 41.2071C62.9515 41.1756 63.0076 41.1567 63.0658 41.1519C63.1241 41.1472 63.1826 41.1568 63.2361 41.1799C63.2896 41.203 63.3363 41.2388 63.3721 41.2842C63.4079 41.3295 63.4316 41.3829 63.4411 41.4395Z" fill="url(#paint4_linear_111_1347)"/>
<path d="M38.3134 47.829C38.3134 47.829 37.8118 51.1813 38.4152 52.5949C38.4152 52.5949 45.5955 51.3105 46.2971 50.3566C46.7566 49.7368 47.0951 47.8583 46.3584 46.8872C46.1663 46.6346 45.8941 46.4516 45.5846 46.3672C45.2751 46.2827 44.9458 46.3015 44.6484 46.4206C42.9138 47.1162 39.7867 47.8962 38.3134 47.829Z" fill="#CCCCCC"/>
<path d="M38.7168 48.0477C38.7168 48.0477 38.2626 51.0728 38.808 52.3521C38.808 52.3521 45.2974 51.1917 45.9235 50.3342C46.3374 49.7729 46.6443 48.0787 45.9779 47.2023C45.8046 46.974 45.559 46.8087 45.2796 46.7324C45.0003 46.656 44.703 46.6729 44.4345 46.7805C42.8612 47.4038 40.0463 48.108 38.7168 48.0477Z" fill="#47C2C2"/>
<path style="mix-blend-mode:overlay" d="M39.0553 48.1442C39.0553 48.1442 38.6326 50.9713 39.1412 52.1645C39.1412 52.1645 45.1991 51.0798 45.7901 50.2706C46.1777 49.754 46.4636 48.1631 45.8427 47.3436C45.6802 47.1306 45.4505 46.9765 45.1894 46.9052C44.9283 46.8339 44.6505 46.8494 44.3993 46.9493C42.9366 47.5416 40.2988 48.1993 39.0553 48.1442Z" fill="url(#paint5_linear_111_1347)"/>
<path d="M56.757 42.5054C56.8539 42.4588 56.9604 42.4347 57.0684 42.4351C57.1763 42.4354 57.2826 42.4602 57.3792 42.5076C57.4758 42.5549 57.5599 42.6234 57.6251 42.7078C57.6902 42.7923 57.7347 42.8903 57.755 42.9944C57.9759 44.086 58.2811 45.8405 58.0479 46.0781C57.7164 46.4052 52.9616 48.857 49.1031 49.7575C49.0075 49.7798 48.9081 49.7821 48.8115 49.7642C48.7149 49.7464 48.6232 49.7088 48.5423 49.6539C48.4615 49.5991 48.3933 49.5281 48.3421 49.4457C48.291 49.3633 48.258 49.2713 48.2455 49.1756L47.8842 46.5929C47.8606 46.4329 47.8951 46.2698 47.9816 46.1322C48.0682 45.9946 48.2014 45.8914 48.3577 45.8405C51.2179 44.8814 54.0219 43.768 56.757 42.5054Z" fill="#CCCCCC"/>
<path d="M44.2223 47.9066C43.3769 48.1804 41.6248 48.7021 40.1357 48.8364C39.9574 48.8509 39.7918 48.9328 39.6737 49.0647C39.5556 49.1967 39.4943 49.3685 39.5026 49.544L39.5552 50.6391C39.561 50.7341 39.5868 50.8269 39.631 50.9117C39.6752 50.9964 39.7369 51.0713 39.812 51.1315C39.8872 51.1917 39.9742 51.2359 40.0677 51.2614C40.1611 51.2869 40.259 51.2931 40.355 51.2796C41.3617 51.1212 43.1489 50.7992 44.3994 50.336C44.5531 50.2793 44.6895 50.185 44.7957 50.0621C44.9019 49.9392 44.9743 49.7917 45.0062 49.6335C45.103 49.207 45.1072 48.7653 45.0185 48.337C44.9987 48.2553 44.9617 48.1785 44.9098 48.1117C44.858 48.0448 44.7924 47.9893 44.7175 47.9488C44.6425 47.9082 44.5597 47.8835 44.4744 47.8763C44.3891 47.869 44.3032 47.8793 44.2223 47.9066Z" fill="#29A19E"/>
<path style="mix-blend-mode:overlay" d="M43.4943 48.578C42.6685 48.8563 41.8157 49.0501 40.9494 49.1565C40.8382 49.1662 40.7351 49.2176 40.6616 49.3C40.5881 49.3824 40.5498 49.4895 40.5548 49.599L40.5811 50.2757C40.5841 50.3353 40.5998 50.3936 40.6272 50.4469C40.6546 50.5001 40.6932 50.5471 40.7403 50.5848C40.7874 50.6225 40.8421 50.65 40.9008 50.6655C40.9595 50.6811 41.0209 50.6844 41.081 50.6751C41.9365 50.5528 42.7793 50.3563 43.5995 50.088C43.6953 50.0525 43.7803 49.9935 43.8463 49.9166C43.9123 49.8398 43.9571 49.7476 43.9766 49.6489C44.0369 49.3839 44.0399 49.1094 43.9854 48.8431C43.9726 48.793 43.9494 48.7461 43.9173 48.7052C43.8852 48.6643 43.8448 48.6303 43.7987 48.6054C43.7526 48.5805 43.7018 48.5653 43.6494 48.5605C43.597 48.5558 43.5442 48.5618 43.4943 48.578Z" fill="url(#paint6_linear_111_1347)"/>
<path d="M33.0587 25.4908C33.0587 25.4908 32.3571 39.0068 34.916 53.4008C34.916 53.4008 31.1382 41.6462 33.0587 25.4908Z" fill="url(#paint7_linear_111_1347)"/>
<path d="M29.9387 26.591C29.9387 26.591 23.0214 21.782 22.3971 22.0179C21.7727 22.2538 21.3886 34.0876 21.3886 34.0876L31.0454 40.6905C31.0454 40.6905 30.421 27.3451 29.9387 26.591Z" fill="url(#paint8_linear_111_1347)"/>
<path d="M18.2544 20.1257C18.2782 19.8245 18.2229 19.5224 18.094 19.2481C17.965 18.9738 17.7666 18.7365 17.5178 18.5589C14.6379 16.4928 5.07402 9.69866 4.69343 9.96553C4.24444 10.2789 3.24123 21.0245 3.24123 21.0245L17.3704 31.715C17.3704 31.715 17.9562 23.9635 18.2544 20.1257Z" fill="url(#paint9_linear_111_1347)"/>
<path style="mix-blend-mode:overlay" d="M17.4178 20.1825C17.4393 19.9054 17.3882 19.6275 17.2694 19.3753C17.1506 19.123 16.968 18.9048 16.7391 18.7414C14.089 16.8474 5.28453 10.5853 4.93551 10.8298C4.52159 11.1191 3.59905 21.0107 3.59905 21.0107L16.604 30.8489C16.604 30.8489 17.1442 23.7139 17.4178 20.1825Z" fill="url(#paint10_linear_111_1347)"/>
<path style="mix-blend-mode:overlay" d="M29.4738 26.7804C29.4738 26.7804 23.4825 22.5586 22.8091 22.6619C22.1356 22.7652 21.783 33.6675 21.783 33.6675L30.3647 39.6937C30.3647 39.6937 29.9631 27.6258 29.4738 26.7804Z" fill="url(#paint11_linear_111_1347)"/>
<path d="M28.3041 27.1678C28.2967 27.067 28.2677 26.9689 28.219 26.8799C28.1704 26.7909 28.1031 26.713 28.0217 26.6512C27.0518 25.9212 23.6616 23.3936 23.3318 23.4746C22.9477 23.5693 22.7075 25.2893 23.644 25.9505C24.2333 26.3637 25.9854 27.5793 27.2096 28.4247C27.3225 28.5023 27.4555 28.5469 27.5932 28.5533C27.7309 28.5596 27.8675 28.5275 27.9873 28.4605C28.1071 28.3936 28.2051 28.2947 28.2699 28.1753C28.3346 28.0558 28.3635 27.9208 28.3532 27.7859L28.3041 27.1678Z" fill="white"/>
<path d="M15.2885 19.1547L8.83601 14.6488C8.7127 14.5624 8.56753 14.5111 8.41643 14.5004C8.26534 14.4897 8.11416 14.5201 7.97951 14.5882C7.84486 14.6564 7.73194 14.7596 7.65315 14.8866C7.57436 15.0137 7.53275 15.1595 7.53288 15.3082C7.53281 15.4349 7.56309 15.5598 7.62128 15.6729C7.67948 15.7859 7.76395 15.884 7.86787 15.9591L14.2958 20.6165C14.4135 20.7015 14.5521 20.7543 14.6974 20.7696C14.8428 20.7848 14.9896 20.762 15.123 20.7033C15.2563 20.6447 15.3715 20.5524 15.4567 20.4358C15.5418 20.3192 15.5939 20.1825 15.6077 20.0397L15.6217 19.8899C15.6358 19.7495 15.6125 19.6079 15.5541 19.4791C15.4957 19.3502 15.4042 19.2384 15.2885 19.1547Z" fill="white"/>
<path d="M5.20539 13.9566C5.20539 14.4938 5.55617 14.9311 6.00516 14.9311C6.45415 14.9311 6.80493 14.4938 6.80493 13.9566C6.80493 13.4194 6.45415 12.9821 6.00516 12.9821C5.55617 12.9821 5.20539 13.4177 5.20539 13.9566Z" fill="white"/>
<path opacity="0.78" d="M45.4324 11.0709C45.4324 11.0709 47.0635 10.6938 49.4663 11.7303C49.4663 11.7303 51.0833 12.5516 51.4517 13.9566L41.7299 17.0231C40.1515 15.7524 38.2959 14.8295 36.5525 13.762L45.4324 11.0709Z" fill="#CC3838"/>
<path d="M44.9659 11.4824C44.9659 11.4824 46.4514 11.1381 48.649 12.0833C48.649 12.0833 50.1222 12.8323 50.459 14.1133L41.5932 16.9095C40.155 15.7507 38.4607 14.9088 36.8717 13.936L44.9659 11.4824Z" fill="#CC3838"/>
<g opacity="0.56">
<path d="M25.1119 17.228L36.5472 13.7621C38.2905 14.8296 40.1461 15.7525 41.7246 17.0231L30.6998 20.4994L25.1119 17.228Z" fill="#3BAFCA"/>
<path d="M30.7034 20.4994C30.7034 20.4994 30.4368 18.9843 28.3567 17.6361C26.2766 16.288 25.112 17.228 25.112 17.228L30.7034 20.4994Z" fill="#24A4AB"/>
</g>
<path d="M26.0029 17.2177L36.2139 14.1185C37.7714 15.0707 39.4288 15.8954 40.8372 17.0283L30.9944 20.1275L26.0029 17.2177Z" fill="#3BAFCA"/>
<path d="M30.9944 20.1447C30.9944 20.1447 30.7576 18.7896 28.8985 17.5878C27.0394 16.386 26.0029 17.2176 26.0029 17.2176L30.9944 20.1447Z" fill="#24A4AB"/>
<path d="M43.3872 16.498C42.8478 15.62 42.117 14.8702 41.2472 14.3025C40.3775 13.7348 39.3905 13.3633 38.3571 13.2146L34.674 14.3303C34.674 14.3303 38.6342 15.2652 39.4866 17.7343L43.3872 16.498Z" fill="url(#paint12_linear_111_1347)"/>
<path d="M33.7146 9.76585L22.4582 3.27649L15.4445 4.91045L27.3533 11.5892L33.7146 9.76585Z" fill="#CC3838"/>
<path d="M33.8076 6.60463L20.8588 11.0244L15.3516 7.80126L28.1549 3.84119L33.8076 6.60463Z" fill="#CC3838"/>
<path style="mix-blend-mode:overlay" d="M49.817 12.3967C49.2457 11.9171 48.5767 11.5628 47.8548 11.3573C47.1328 11.1518 46.3745 11.1 45.6305 11.2052L45.5674 11.219L40.5039 12.7273C40.4211 12.7514 40.3484 12.8009 40.2963 12.8685C40.2441 12.9361 40.2154 13.0183 40.2142 13.1031C40.213 13.1879 40.2395 13.2708 40.2897 13.3398C40.34 13.4088 40.4113 13.4602 40.4934 13.4866C41.3625 13.7482 42.1352 14.2526 42.7173 14.938C42.7686 15.0011 42.8379 15.0476 42.9164 15.0716C42.9949 15.0955 43.0789 15.0958 43.1576 15.0723L49.6749 13.0854C49.7451 13.0644 49.8082 13.0252 49.8575 12.9719C49.9068 12.9186 49.9405 12.8532 49.955 12.7826C49.9696 12.712 49.9645 12.6389 49.9402 12.571C49.9159 12.5031 49.8733 12.4428 49.817 12.3967Z" fill="url(#paint13_linear_111_1347)"/>
<path d="M37.5681 16.3137C36.9507 15.7473 35.7598 14.8175 34.49 14.678C34.4387 14.6723 34.3868 14.677 34.3374 14.6918L28.6759 16.4136C28.6 16.436 28.5332 16.4811 28.4848 16.5428C28.4365 16.6044 28.409 16.6793 28.4063 16.757C28.4036 16.8348 28.4258 16.9114 28.4697 16.9761C28.5137 17.0408 28.5772 17.0904 28.6514 17.1178C29.5103 17.4545 30.2369 18.0525 30.7244 18.8241C30.7704 18.8931 30.8383 18.9454 30.9175 18.9728C30.9968 19.0001 31.083 19.0011 31.1629 18.9756L37.4242 16.9405C37.4874 16.9208 37.5441 16.8853 37.5889 16.8375C37.6337 16.7896 37.6649 16.731 37.6795 16.6676C37.694 16.6042 37.6914 16.5382 37.6718 16.4761C37.6523 16.414 37.6165 16.358 37.5681 16.3137Z" fill="url(#paint14_linear_111_1347)"/>
<path opacity="0.25" d="M65.2476 43.9465C65.2476 43.9465 66.5297 45.1724 62.9115 47.0044C59.2932 48.8364 42.7419 55.7252 35.3932 55.5375C35.3932 55.5375 33.2886 55.3653 28.6215 51.4982C28.6215 51.4982 31.8714 55.7734 35.6247 56.481C39.378 57.1887 62.0468 48.6349 64.9758 46.6842C64.9758 46.6842 66.4964 45.5805 65.2476 43.9465Z" fill="url(#paint15_linear_111_1347)"/>
<path d="M31.7908 45.88L2.08016 23.478C2.08016 23.478 27.8218 43.8535 31.7908 45.88Z" fill="url(#paint16_linear_111_1347)"/>
</g>
<defs>
<linearGradient id="paint0_linear_111_1347" x1="41.1565" y1="2.11081" x2="-2.1653" y2="38.9176" gradientUnits="userSpaceOnUse">
<stop stop-color="white"/>
<stop offset="1" stop-color="#A5A7AA"/>
</linearGradient>
<linearGradient id="paint1_linear_111_1347" x1="61.7293" y1="16.114" x2="34.2651" y2="54.7848" gradientUnits="userSpaceOnUse">
<stop stop-color="#06D2ED"/>
<stop offset="1" stop-color="#2E3190"/>
</linearGradient>
<linearGradient id="paint2_linear_111_1347" x1="61.6469" y1="12.7634" x2="43.028" y2="45.9354" gradientUnits="userSpaceOnUse">
<stop stop-color="white"/>
<stop offset="1" stop-color="white" stop-opacity="0"/>
</linearGradient>
<linearGradient id="paint3_linear_111_1347" x1="61.5275" y1="44.6937" x2="62.687" y2="38.7454" gradientUnits="userSpaceOnUse">
<stop stop-color="white"/>
<stop offset="1" stop-color="white" stop-opacity="0"/>
</linearGradient>
<linearGradient id="paint4_linear_111_1347" x1="63.5182" y1="42.2402" x2="61.3452" y2="42.2402" gradientUnits="userSpaceOnUse">
<stop stop-color="white"/>
<stop offset="1" stop-color="white" stop-opacity="0"/>
</linearGradient>
<linearGradient id="paint5_linear_111_1347" x1="44.038" y1="44.9675" x2="42.7512" y2="48.5349" gradientUnits="userSpaceOnUse">
<stop stop-color="white"/>
<stop offset="1" stop-color="white" stop-opacity="0"/>
</linearGradient>
<linearGradient id="paint6_linear_111_1347" x1="44.031" y1="49.6214" x2="40.5548" y2="49.6214" gradientUnits="userSpaceOnUse">
<stop stop-color="white"/>
<stop offset="1" stop-color="white" stop-opacity="0"/>
</linearGradient>
<linearGradient id="paint7_linear_111_1347" x1="32.2186" y1="25.1585" x2="35.0894" y2="59.8663" gradientUnits="userSpaceOnUse">
<stop stop-color="white"/>
<stop offset="1" stop-color="#A5A7AA"/>
</linearGradient>
<linearGradient id="paint8_linear_111_1347" x1="32.1942" y1="22.4949" x2="21.9115" y2="39.7297" gradientUnits="userSpaceOnUse">
<stop stop-color="#06D2ED"/>
<stop offset="1" stop-color="#2E3190"/>
</linearGradient>
<linearGradient id="paint9_linear_111_1347" x1="24.6525" y1="15.0138" x2="-7.99973" y2="29.5052" gradientUnits="userSpaceOnUse">
<stop stop-color="#06D2ED"/>
<stop offset="1" stop-color="#2E3190"/>
</linearGradient>
<linearGradient id="paint10_linear_111_1347" x1="5.71598" y1="11.0347" x2="16.0216" y2="31.7908" gradientUnits="userSpaceOnUse">
<stop stop-color="white"/>
<stop offset="1" stop-color="white" stop-opacity="0"/>
</linearGradient>
<linearGradient id="paint11_linear_111_1347" x1="20.4255" y1="16.925" x2="29.6314" y2="41.3193" gradientUnits="userSpaceOnUse">
<stop stop-color="white"/>
<stop offset="1" stop-color="white" stop-opacity="0"/>
</linearGradient>
<linearGradient id="paint12_linear_111_1347" x1="38.3133" y1="14.487" x2="41.2713" y2="18.2181" gradientUnits="userSpaceOnUse">
<stop stop-color="white"/>
<stop offset="1" stop-color="#A5A7AA"/>
</linearGradient>
<linearGradient id="paint13_linear_111_1347" x1="49.9608" y1="13.1216" x2="40.2146" y2="13.1216" gradientUnits="userSpaceOnUse">
<stop stop-color="white"/>
<stop offset="1" stop-color="white" stop-opacity="0"/>
</linearGradient>
<linearGradient id="paint14_linear_111_1347" x1="37.6891" y1="16.832" x2="28.4076" y2="16.832" gradientUnits="userSpaceOnUse">
<stop stop-color="white"/>
<stop offset="1" stop-color="white" stop-opacity="0"/>
</linearGradient>
<linearGradient id="paint15_linear_111_1347" x1="65.7405" y1="50.2293" x2="28.6215" y2="50.2293" gradientUnits="userSpaceOnUse">
<stop stop-color="white"/>
<stop offset="1" stop-color="white" stop-opacity="0"/>
</linearGradient>
<linearGradient id="paint16_linear_111_1347" x1="31.7908" y1="34.6782" x2="2.08016" y2="34.6782" gradientUnits="userSpaceOnUse">
<stop stop-color="white"/>
<stop offset="1" stop-color="white" stop-opacity="0"/>
</linearGradient>
<clipPath id="clip0_111_1347">
<rect width="66" height="59" fill="white" transform="matrix(-1 0 0 1 66 0)"/>
</clipPath>
</defs>
</svg>
