<svg width="224" height="225" viewBox="0 0 224 225" fill="none" xmlns="http://www.w3.org/2000/svg">
<path d="M112 224.009C173.856 224.009 224 173.865 224 112.009C224 50.1532 173.856 0.00909424 112 0.00909424C50.1441 0.00909424 0 50.1532 0 112.009C0 173.865 50.1441 224.009 112 224.009Z" fill="#EB001B"/>
<path d="M70.8352 62.8998C71.5874 56.1297 71.9636 52.7446 74.2416 50.7057C76.5197 48.6667 79.9256 48.6667 86.7374 48.6667H137.263C144.074 48.6667 147.48 48.6667 149.758 50.7057C152.036 52.7446 152.413 56.1297 153.165 62.8998L159.114 116.446C159.306 118.175 159.402 119.039 159.678 119.856C159.954 120.674 160.402 121.42 161.297 122.911L181.433 156.471C182.238 157.814 182.641 158.485 182.354 158.993C182.067 159.5 181.284 159.5 179.718 159.5H44.2824C42.7163 159.5 41.9332 159.5 41.646 158.993C41.3588 158.485 41.7616 157.814 42.5674 156.471L62.7034 122.911C63.5982 121.42 64.0456 120.674 64.3216 119.856C64.5975 119.039 64.6936 118.175 64.8856 116.446L70.8352 62.8998Z" stroke="white" stroke-width="5"/>
<path d="M89.0593 162.713C90.4124 168.605 93.3941 173.811 97.5419 177.524C101.69 181.237 106.772 183.25 112 183.25C117.228 183.25 122.31 181.237 126.458 177.524C130.606 173.811 133.588 168.605 134.941 162.713" stroke="white" stroke-width="5" stroke-linecap="round"/>
</svg>
