<svg width="170" height="170" viewBox="0 0 170 170" fill="none" xmlns="http://www.w3.org/2000/svg">
<path d="M85 170C131.944 170 170 131.944 170 85C170 38.0558 131.944 0 85 0C38.0558 0 0 38.0558 0 85C0 131.944 38.0558 170 85 170Z" fill="#4CD964"/>
<path d="M119.908 59.8893C118.504 58.4984 116.227 58.4984 114.823 59.8893L71.7385 102.557L55.1777 86.1563C53.7733 84.7654 51.4965 84.7655 50.0919 86.1563C48.6875 87.547 48.6875 89.8018 50.0919 91.1926L69.1956 110.111C70.5995 111.502 72.878 111.501 74.2814 110.111L119.908 64.9258C121.313 63.5351 121.313 61.2802 119.908 59.8893Z" fill="white" stroke="white" stroke-width="4.88889"/>
</svg>
