<svg width="58" height="29" viewBox="0 0 58 29" fill="none" xmlns="http://www.w3.org/2000/svg">
<path d="M0 2C0 0.89543 0.895431 0 2 0H56C57.1046 0 58 0.895431 58 2V27C58 28.1046 57.1046 29 56 29H2C0.895432 29 0 28.1046 0 27V2Z" fill="#FBFAF8"/>
<path fill-rule="evenodd" clip-rule="evenodd" d="M38.868 8.99962C38.1705 8.7387 37.0775 8.45831 35.7118 8.45831C32.2321 8.45831 29.7801 10.2052 29.7595 12.7072C29.7405 14.5587 31.5094 15.5896 32.8458 16.2067C34.216 16.8367 34.6774 17.2396 34.6702 17.803C34.6615 18.6662 33.5762 19.0604 32.5639 19.0604C31.154 19.0604 30.4056 18.8661 29.2488 18.3853L28.7946 18.1802L28.3003 21.0631C29.1238 21.4219 30.6437 21.7341 32.2234 21.75C35.9258 21.75 38.3295 20.0236 38.3562 17.3509C38.3691 15.8859 37.4314 14.771 35.4001 13.8529C34.1682 13.2567 33.4147 12.8585 33.4229 12.2556C33.4229 11.7215 34.0602 11.1479 35.4387 11.1479C36.5919 11.13 37.4252 11.3806 38.0748 11.6421L38.3912 11.7897L38.868 8.99962ZM22.5749 21.5588L24.777 8.68286H28.2983L26.0953 21.5588H22.5749ZM45.1785 8.69545H47.9L50.7501 21.5622H47.4818C47.4818 21.5622 47.1593 20.0838 47.0539 19.6333C46.7817 19.6333 45.6456 19.6318 44.5772 19.6305L44.5752 19.6305H44.5747L44.5699 19.6305C43.624 19.6293 42.7328 19.6281 42.5434 19.6281C42.4065 19.9762 41.8022 21.5622 41.8022 21.5622H38.1033L43.3334 9.7632C43.7048 8.92407 44.3349 8.69545 45.1785 8.69545ZM43.5562 16.9945C43.8478 16.2527 44.9599 13.3945 44.9599 13.3945C44.9496 13.4112 45.018 13.2342 45.1114 12.9925L45.1116 12.9919L45.1117 12.9917C45.2098 12.7379 45.3353 12.4129 45.4264 12.1658L45.6641 13.2761C45.6641 13.2761 46.3389 16.3491 46.4804 16.9945H43.5562ZM16.1735 17.4725L19.6208 8.69223H23.351L17.8071 21.5431L14.0805 21.5482L10.9285 10.2864C13.1639 11.4018 15.1643 13.6306 15.8057 15.6882L16.1735 17.4725Z" fill="#1A1F71"/>
<path fill-rule="evenodd" clip-rule="evenodd" d="M12.9744 8.68378H7.29475L7.25 8.95135C11.6684 10.0181 14.5921 12.5934 15.8055 15.6884L14.5705 9.77048C14.3576 8.95494 13.7388 8.71197 12.9744 8.68378Z" fill="#F9A51A"/>
</svg>
