<svg width="57" height="29" viewBox="0 0 57 29" fill="none" xmlns="http://www.w3.org/2000/svg">
<path d="M0 2C0 0.89543 0.895431 0 2 0H55C56.1046 0 57 0.895431 57 2V27C57 28.1046 56.1046 29 55 29H2C0.89543 29 0 28.1046 0 27V2Z" fill="#FBFAF8"/>
<path fill-rule="evenodd" clip-rule="evenodd" d="M35.3954 25.375C41.4248 25.375 46.3127 20.5061 46.3127 14.5C46.3127 8.4939 41.4248 3.625 35.3954 3.625C29.3659 3.625 24.478 8.4939 24.478 14.5C24.478 20.5061 29.3659 25.375 35.3954 25.375Z" fill="#F79E1B"/>
<path fill-rule="evenodd" clip-rule="evenodd" d="M21.6048 25.375C27.6343 25.375 32.5222 20.5061 32.5222 14.5C32.5222 8.4939 27.6343 3.625 21.6048 3.625C15.5754 3.625 10.6875 8.4939 10.6875 14.5C10.6875 20.5061 15.5754 25.375 21.6048 25.375Z" fill="#EB001B"/>
<path fill-rule="evenodd" clip-rule="evenodd" d="M28.5 6.06819C26.0454 8.06235 24.478 11.0988 24.478 14.5C24.478 17.9011 26.0454 20.9376 28.5 22.9317C30.9545 20.9376 32.5219 17.9011 32.5219 14.5C32.5219 11.0988 30.9545 8.06235 28.5 6.06819Z" fill="#FF5F00"/>
</svg>
