<svg width="58" height="29" viewBox="0 0 58 29" fill="none" xmlns="http://www.w3.org/2000/svg">
<path d="M0 2C0 0.89543 0.895431 0 2 0H56C57.1046 0 58 0.895431 58 2V27C58 28.1046 57.1046 29 56 29H2C0.895432 29 0 28.1046 0 27V2Z" fill="#FBFAF8"/>
<path fill-rule="evenodd" clip-rule="evenodd" d="M24.8261 24.6378L25.2214 22.2436L24.3408 22.224H20.1357L23.0581 4.55636C23.0672 4.50286 23.0966 4.4532 23.1396 4.41787C23.1828 4.38254 23.2379 4.36316 23.2954 4.36316H30.3858C32.7398 4.36316 34.3643 4.83012 35.2122 5.75193C35.6099 6.18437 35.8631 6.6364 35.9857 7.13364C36.1142 7.65552 36.1164 8.27894 35.991 9.03945L35.9819 9.09476V9.58212L36.3795 9.79692C36.7143 9.96631 36.9804 10.1601 37.1845 10.382C37.5246 10.7518 37.7446 11.2218 37.8375 11.7788C37.9337 12.3518 37.9019 13.0338 37.7446 13.8058C37.5631 14.6937 37.2699 15.4671 36.8737 16.0998C36.5095 16.6829 36.0454 17.1666 35.4943 17.5413C34.9681 17.8974 34.3431 18.1677 33.6363 18.3407C32.9514 18.5107 32.1705 18.5965 31.314 18.5965H30.7622C30.3678 18.5965 29.9845 18.732 29.6837 18.9749C29.3819 19.2228 29.1825 19.5615 29.1213 19.932L29.0796 20.1476L28.3811 24.3676L28.3495 24.5225C28.3411 24.5716 28.3267 24.596 28.3055 24.6125C28.2866 24.6277 28.2595 24.6378 28.2331 24.6378H24.8261Z" fill="#28356A"/>
<path fill-rule="evenodd" clip-rule="evenodd" d="M36.7555 9.15106C36.7345 9.28007 36.7102 9.4119 36.6831 9.54736C35.748 14.1249 32.549 15.7063 28.4633 15.7063H26.3831C25.8834 15.7063 25.4622 16.0521 25.3845 16.5221L24.0178 24.7884C23.9672 25.097 24.2166 25.375 24.5431 25.375H28.2328C28.6696 25.375 29.0407 25.0724 29.1095 24.6616L29.1458 24.4829L29.8405 20.2794L29.8851 20.0489C29.9531 19.6366 30.3251 19.3338 30.7619 19.3338H31.3137C34.8884 19.3338 37.6869 17.9501 38.5048 13.9455C38.8463 12.2726 38.6695 10.8758 37.7654 9.8934C37.4919 9.59723 37.1525 9.35133 36.7555 9.15106Z" fill="#019DDE"/>
<path fill-rule="evenodd" clip-rule="evenodd" d="M35.7777 8.77916C35.6348 8.73939 35.4874 8.70345 35.3363 8.67095C35.1842 8.63925 35.0286 8.61119 34.8683 8.58656C34.3074 8.50015 33.6928 8.45917 33.0345 8.45917H27.4771C27.3401 8.45917 27.2101 8.48864 27.0939 8.54194C26.8375 8.65944 26.6471 8.8908 26.601 9.17405L25.4186 16.314L25.3848 16.5221C25.4625 16.0521 25.8836 15.7063 26.3833 15.7063H28.4636C32.5492 15.7063 35.7483 14.1241 36.6833 9.54733C36.7113 9.41187 36.7348 9.28004 36.7557 9.15103C36.5192 9.03131 36.263 8.92896 35.9871 8.84174C35.9189 8.82014 35.8487 8.79935 35.7777 8.77916Z" fill="#00164C"/>
<path fill-rule="evenodd" clip-rule="evenodd" d="M26.6008 9.1741C26.6469 8.89086 26.8373 8.65949 27.0937 8.5428C27.2108 8.48931 27.3399 8.45983 27.4769 8.45983H33.0343C33.6926 8.45983 34.3072 8.50101 34.8681 8.58742C35.0284 8.61185 35.184 8.64011 35.3361 8.67181C35.4872 8.70411 35.6346 8.74025 35.7775 8.77982C35.8485 8.80001 35.9188 8.821 35.9876 8.8418C36.2635 8.92901 36.5199 9.03218 36.7564 9.15109C37.0346 7.45948 36.754 6.30772 35.7949 5.26478C34.7373 4.11645 32.8287 3.62506 30.3864 3.62506H23.2958C22.797 3.62506 22.3714 3.97089 22.2943 4.44169L19.3411 22.291C19.2828 22.6441 19.5685 22.9627 19.942 22.9627H24.3193L26.6008 9.1741Z" fill="#012F86"/>
</svg>
